<?xml version="1.0" encoding="UTF-8"?>
<svg id="_レイヤー_2" data-name="レイヤー 2" xmlns="http://www.w3.org/2000/svg" width="55.6" height="31.98" viewBox="0 0 55.6 31.98">
  <defs>
    <style>
      .cls-1 {
        fill: #231815;
        stroke-width: 0px;
      }
    </style>
  </defs>
  <g id="_レイヤー_1-2" data-name="レイヤー 1">
    <g>
      <path class="cls-1" d="m.74,31.98c-.09,0-.18-.02-.26-.05-.29-.11-.48-.38-.48-.69V.74C0,.43.19.16.48.05c.29-.11.61-.03.81.2l12.98,14.63L27.25.25C27.39.09,27.59,0,27.8,0s.41.09.55.25l12.98,14.63L54.31.25c.2-.23.53-.31.81-.2.29.11.48.38.48.69v30.51c0,.31-.19.58-.48.69-.29.11-.61.03-.81-.2l-12.98-14.63-12.98,14.63c-.14.16-.34.25-.55.25s-.41-.09-.55-.25l-12.98-14.63L1.29,31.74c-.14.16-.34.25-.55.25Zm14.52-15.99l12.54,14.14,12.54-14.14L27.8,1.85l-12.54,14.14ZM1.48,2.68v26.62l11.81-13.31L1.48,2.68Zm40.84,13.31l11.81,13.31V2.68l-11.81,13.31Z"/>
      <path class="cls-1" d="m48.55,31.98h-14.44c-.29,0-.55-.17-.67-.44-.12-.26-.07-.57.12-.79l7.22-8.14c.14-.16.34-.25.55-.25h0c.21,0,.41.09.55.25l7.18,8.09c.14.13.23.32.23.53,0,.41-.33.74-.74.74Zm-12.8-1.48h11.15l-5.58-6.29-5.58,6.29Z"/>
      <path class="cls-1" d="m21.49,31.98H7.05c-.29,0-.55-.17-.67-.44-.12-.26-.07-.57.12-.79l7.22-8.14c.14-.16.34-.25.55-.25s.41.09.55.25l7.18,8.09c.14.13.23.32.23.53,0,.41-.33.74-.74.74Zm-12.8-1.48h11.15l-5.58-6.29-5.58,6.29Z"/>
    </g>
  </g>
</svg>